<svg xmlns="http://www.w3.org/2000/svg" width="128" height="128" viewBox="0 0 128 128" fill="none">
  <rect width="128" height="128" rx="28" fill="#101828"/>
  <rect x="24" y="24" width="80" height="80" rx="18" fill="#F8FBFF"/>
  <path d="M39 80c16-17 28-4 43-22 4-5 8-10 15-14" stroke="#2563EB" stroke-width="10" stroke-linecap="round"/>
  <path d="M78 57l18-18 7 7-18 18-12 5 5-12z" fill="#111827"/>
  <path d="M96 39l5-5c2-2 5-2 7 0l2 2c2 2 2 5 0 7l-5 5-9-9z" fill="#60A5FA"/>
  <circle cx="42" cy="42" r="6" fill="#2563EB"/>
  <circle cx="55" cy="42" r="4" fill="#93C5FD"/>
</svg>
